<?xml version="1.0" encoding="UTF-8"?>
<svg width="595px" height="145px" viewBox="0 0 595 145" version="1.1" xmlns="http://www.w3.org/2000/svg" xmlns:xlink="http://www.w3.org/1999/xlink">
    <!-- Generator: Sketch 49.1 (51147) - http://www.bohemiancoding.com/sketch -->
    <title>SVG iOS Toolbox</title>
    <desc>Created with Sketch.</desc>
    <defs></defs>
    <g id="SVG-iOS-Toolbox" stroke="none" stroke-width="1" fill="none" fill-rule="evenodd">
        <path d="M89.3076923,60.2195556 C93.7912088,67.4222222 98.7032967,74.6248889 103.681319,81.4986667 C105.89011,84.9848889 108.593407,87.616 108.593407,91.7271111 C108.593407,95.8382222 105.989011,98.6666667 103.78022,101.955556 C98.8021978,108.829333 93.8901099,115.999111 89.4065934,123.234667 C86.2760056,127.108016 85.493801,132.369089 87.3626374,136.982222 C89.1557864,141.034895 92.8730308,143.915111 97.2527473,144.645333 C102.252856,145.300757 107.238114,143.336248 110.43956,139.448889 C113.736264,136.620444 116.703297,133.561778 119.835165,130.634667 C126.131868,124.780444 132.362637,118.827556 138.659341,112.973333 C141.962557,110.175837 145.12051,107.211982 148.120879,104.093333 C151.270257,100.449377 152.908965,95.7448489 152.703297,90.9377778 C152.373626,81.0711111 143.802198,75.184 137.142857,69.0008889 C127.945055,60.4826667 119.10989,51.504 109.681319,43.216 C104.97476,37.6033142 96.598549,36.8597089 90.9725275,41.5551111 C85.3465059,46.2505133 84.6011338,54.6068697 89.3076923,60.2195556 C89.6043956,60.5155556 89.3076923,59.9564444 89.3076923,60.2195556 Z" id="Shape" fill="#73AA2F"></path>
        <path d="M123.494505,115.966222 C123.494505,123.760889 118.384615,128.76 114.230769,135.337778 C113.934066,135.732444 113.67033,136.16 113.373626,136.587556 L119.637363,130.667556 C125.934066,124.813333 132.164835,118.860444 138.461538,113.006222 C141.764754,110.208725 144.922708,107.244871 147.923077,104.126222 C151.072455,100.482266 152.711163,95.7777378 152.505495,90.9706667 C152.175824,81.104 143.604396,75.2168889 136.945055,69.0337778 C127.747253,60.5155556 118.912088,51.5368889 109.483516,43.2488889 C104.786062,37.6906952 96.4615099,36.983902 90.8901099,41.6702222 C85.3187099,46.3565424 84.6102374,54.6613618 89.3076923,60.2195556 C93.7912088,67.4222222 98.7032967,74.6248889 103.681319,81.4986667 C105,83.5377778 106.450549,85.3137778 107.43956,87.2542222 L114.032967,96.6275556 C118.384615,103.205333 123.494505,108.204444 123.494505,115.966222 Z" id="Shape" fill="#9EC43F" fill-rule="nonzero"></path>
        <path d="M63.3956044,84.6231111 C58.9120879,77.4204444 54,70.2177778 49.021978,63.344 C46.8131868,59.8577778 44.1098901,57.2266667 44.1098901,53.1155556 C44.1098901,49.0044444 46.8131868,46.3404444 49.021978,42.8542222 C54,35.9804444 58.9120879,28.8106667 63.3956044,21.5751111 C66.5261922,17.7017615 67.3083968,12.4406889 65.4395604,7.82755556 C63.6464114,3.77488308 59.929167,0.894666668 55.5494505,0.164444444 C50.5501407,-0.484533376 45.5679157,1.47878068 42.3626374,5.36088889 C39.0659341,8.18933333 36.0989011,11.248 32.967033,14.1751111 C26.8681319,20.0293333 20.6703297,25.9822222 14.3736264,31.8364444 C11.0522322,34.625311 7.88286267,37.5895519 4.87912088,40.7164444 C1.74998599,44.3720119 0.114133381,49.068343 0.296703297,53.872 C0.626373626,63.7386667 9.1978022,69.6257778 15.8571429,75.8088889 C25.0549451,84.3271111 33.9230769,93.3057778 43.3186813,101.593778 C46.2146856,105.607677 51.1225049,107.662126 56.0224009,106.911648 C60.922297,106.161171 64.9863271,102.732576 66.5420018,98.0368492 C68.0976764,93.3411226 66.8821309,88.1717083 63.3956044,84.656 C63.2307692,84.3271111 63.5934066,84.9191111 63.3956044,84.6231111 Z" id="Shape" fill="#DDC00C"></path>
        <path d="M29.3076923,28.8764444 C29.3076923,21.0817778 34.4175824,16.0826667 38.5714286,9.50488889 L39.4615385,8.25511111 C37.3516484,10.2284444 35.2747253,12.2346667 33.1648352,14.1751111 C26.8681319,20.0293333 20.6703297,25.9822222 14.3736264,31.8364444 C11.0522322,34.625311 7.88286267,37.5895519 4.87912088,40.7164444 C1.74998599,44.3720119 0.114133381,49.068343 0.296703297,53.872 C0.626373626,63.7386667 9.1978022,69.6257778 15.8571429,75.8088889 C25.0549451,84.3271111 33.9230769,93.3057778 43.3186813,101.593778 C46.2146856,105.607677 51.1225049,107.662126 56.0224009,106.911648 C60.922297,106.161171 64.9863271,102.732576 66.5420018,98.0368492 C68.0976764,93.3411226 66.8821309,88.1717083 63.3956044,84.656 C58.9120879,77.4533333 54,70.2506667 49.021978,63.3768889 C47.7362637,61.3377778 46.2857143,59.5617778 45.2967033,57.6213333 C42.989011,54.3324444 40.7142857,51.0435556 38.7032967,48.248 C34.4175824,41.6373333 29.3076923,36.6382222 29.3076923,28.8764444 Z" id="Shape" fill="#FFE609" fill-rule="nonzero"></path>
        <path d="M201.098901,72.6284444 C199.771622,72.0633846 198.895957,70.7786948 198.857143,69.3395556 C198.843288,68.4700491 199.17518,67.6304584 199.78022,67.0044444 C200.375404,66.3458747 201.232673,65.9845071 202.120879,66.0177778 C202.634311,66.010652 203.142312,66.1232737 203.604396,66.3466667 C208.513279,68.522429 213.826253,69.6430169 219.197802,69.6355556 C228.428571,69.6355556 233.043956,66.6097778 233.043956,60.5582222 C233.072183,59.0432371 232.419027,57.5952204 231.263736,56.6115556 C229.983485,55.503339 228.49216,54.6643598 226.879121,54.1448889 C225.131868,53.52 222.659341,52.7964444 219.428571,51.9742222 C215.916543,51.0807482 212.46006,49.9825666 209.076923,48.6853333 C206.486158,47.6961957 204.161266,46.1199176 202.285714,44.0808889 C200.293767,41.8168194 199.264896,38.8672996 199.417582,35.8586667 C199.387195,32.9660914 200.212866,30.1288537 201.791209,27.7022222 C203.531104,25.1287454 205.965592,23.0991132 208.813187,21.848 C212.310517,20.3153158 216.104584,19.5740253 219.923077,19.6773333 C225.28053,19.6071406 230.607,20.4983514 235.648352,22.3084444 C237.097104,22.7160722 238.042707,24.1033687 237.89011,25.5973333 C237.895623,26.4395773 237.577028,27.2518334 237,27.8666667 C236.443474,28.5429295 235.601668,28.9202355 234.725275,28.8862222 C234.282842,28.8619629 233.847908,28.7618314 233.43956,28.5902222 C229.347299,27.1734215 225.045969,26.4508213 220.714286,26.4524444 C217.165804,26.3007237 213.643255,27.1195665 210.527473,28.8204444 C208.10386,30.1189897 206.604703,32.6539114 206.637363,35.3982222 C206.565178,37.125667 207.237073,38.8014226 208.483516,40.0026667 C209.829228,41.24525 211.425192,42.1871033 213.164835,42.7653333 C215.665601,43.5962399 218.207394,44.2987903 220.78022,44.8702222 C224.21084,45.6237095 227.582287,46.6239529 230.868132,47.8631111 C233.42301,48.8289856 235.691255,50.4243075 237.461538,52.5004444 C239.400791,54.9159263 240.375467,57.9618905 240.197802,61.0515556 C240.233542,63.898037 239.342816,66.679287 237.659341,68.9777778 C235.817589,71.4214064 233.344884,73.319853 230.505495,74.4702222 C227.151546,75.8468923 223.549031,76.5186635 219.923077,76.4435556 C213.451283,76.4855319 207.041256,75.1864065 201.098901,72.6284444 Z" id="Shape" fill="#1E1E1C" fill-rule="nonzero"></path>
        <path d="M252.659341,74.9964444 C251.975837,74.3475492 251.603785,73.4375847 251.637363,72.4968889 L251.637363,23.7555556 C251.624761,22.7992988 251.9922,21.8769651 252.659341,21.1902222 C253.707926,20.1822962 255.255734,19.8904996 256.600688,20.4471898 C257.945642,21.0038799 258.831775,22.3031096 258.857143,23.7555556 L258.857143,44.7386667 L288.824176,44.7386667 L288.824176,23.7555556 C288.811574,22.7992988 289.179013,21.8769651 289.846154,21.1902222 C290.894739,20.1822962 292.442547,19.8904996 293.787501,20.4471898 C295.132456,21.0038799 296.018589,22.3031096 296.043956,23.7555556 L296.043956,72.4968889 C296.06064,73.4478089 295.663887,74.3593761 294.956044,74.9964444 C293.542008,76.3969641 291.26019,76.3969641 289.846154,74.9964444 C289.16265,74.3475492 288.790598,73.4375847 288.824176,72.4968889 L288.824176,51.4808889 L258.857143,51.4808889 L258.857143,72.4968889 C258.873827,73.4478089 258.477074,74.3593761 257.769231,74.9964444 C256.355195,76.3969641 254.073377,76.3969641 252.659341,74.9964444 Z" id="Shape" fill="#1E1E1C" fill-rule="nonzero"></path>
        <path d="M309.065934,74.9964444 C308.394545,74.3417598 308.034796,73.432557 308.076923,72.4968889 C308.105454,71.9501309 308.239792,71.4140502 308.472527,70.9182222 L328.648352,23.3937778 C329.018552,22.4687743 329.633912,21.6616078 330.428571,21.0586667 C331.229253,20.4404068 332.21852,20.1153029 333.230769,20.1377778 L334.021978,20.1377778 C335.033432,20.1205748 336.020993,20.4451178 336.824176,21.0586667 C337.600585,21.6795837 338.211957,22.4815186 338.604396,23.3937778 L358.78022,70.9182222 C359.012955,71.4140502 359.147293,71.9501309 359.175824,72.4968889 C359.193919,73.4443566 358.824616,74.3583482 358.152941,75.0284306 C357.481267,75.6985131 356.565104,76.0669408 355.615385,76.0488889 C354.900404,76.0594589 354.199086,75.8530032 353.604396,75.4568889 C352.983829,75.0644044 352.500178,74.4899935 352.21978,73.8124444 L347.076923,61.512 L320.076923,61.512 L314.934066,73.8124444 C314.63231,74.4768247 314.153328,75.0456893 313.549451,75.4568889 C312.951351,75.8456853 312.252323,76.0514672 311.538462,76.0488889 C310.601836,76.0644575 309.702798,75.681777 309.065934,74.9964444 Z M322.945055,54.9671111 L344.307692,54.9671111 L333.626374,29.3137778 L322.945055,54.9671111 Z" id="Shape" fill="#1E1E1C" fill-rule="nonzero"></path>
        <path d="M372.230769,74.9964444 C371.547265,74.3475492 371.175214,73.4375847 371.208791,72.4968889 L371.208791,23.7555556 C371.181126,22.796585 371.550808,21.868623 372.230769,21.1902222 C372.876928,20.475253 373.804638,20.0786056 374.769231,20.1048889 C376.777343,20.1229378 378.395686,21.7521224 378.395604,23.7555556 L378.395604,48.8497778 L405.461538,21.3875556 C406.03308,20.609095 406.918463,20.1203073 407.883176,20.0506581 C408.847888,19.9810088 409.79459,20.3375258 410.472527,21.0257778 C411.117065,21.58898 411.479086,22.4076158 411.461538,23.2622222 C411.510367,24.1646614 411.202638,25.0502362 410.604396,25.7288889 L392.340659,43.8835556 L413.274725,70.1946667 C413.827914,70.8371612 414.142264,71.6502128 414.164835,72.4968889 C414.227186,73.4099861 413.876405,74.3029586 413.208791,74.9306667 C412.556604,75.6334804 411.629725,76.0177636 410.67033,75.9831111 C409.545207,76.025636 408.476138,75.4923683 407.835165,74.5688889 L387.428571,48.5866667 L378.395604,57.664 L378.395604,72.4311111 C378.420701,73.3768903 378.036315,74.2876429 377.340659,74.9306667 C376.657642,75.6082619 375.732464,75.9869222 374.769231,75.9831111 C373.820062,76.0347077 372.894765,75.6750567 372.230769,74.9964444 Z" id="Shape" fill="#1E1E1C" fill-rule="nonzero"></path>
        <path d="M436.087912,74.0755556 C428.571623,70.7444383 423.863777,63.1645064 424.21978,54.9671111 L424.21978,23.7555556 C424.192115,22.796585 424.561797,21.868623 425.241758,21.1902222 C425.887917,20.475253 426.815627,20.0786056 427.78022,20.1048889 C429.788332,20.1229378 431.406675,21.7521224 431.406593,23.7555556 L431.406593,55.1644444 C431.317091,58.0059391 432.074289,60.8100896 433.582418,63.2222222 C434.989094,65.3821828 436.977061,67.1032825 439.318681,68.1884444 C444.145957,70.3823479 449.689208,70.3823479 454.516484,68.1884444 C456.858104,67.1032825 458.84607,65.3821828 460.252747,63.2222222 C461.760876,60.8100896 462.518074,58.0059391 462.428571,55.1644444 L462.428571,23.7555556 C462.400906,22.796585 462.770588,21.868623 463.450549,21.1902222 C464.096708,20.475253 465.024418,20.0786056 465.989011,20.1048889 C467.997123,20.1229378 469.615466,21.7521224 469.615385,23.7555556 L469.615385,54.9342222 C469.934358,63.1219155 465.238349,70.6827883 457.747253,74.0426667 C450.874684,77.2017298 442.960481,77.2017298 436.087912,74.0426667 L436.087912,74.0755556 Z" id="Shape" fill="#1E1E1C" fill-rule="nonzero"></path>
        <path d="M486,74.9964444 C485.316496,74.3475492 484.944444,73.4375847 484.978022,72.4968889 L484.978022,24.1831111 C484.950357,23.2241406 485.320038,22.2961785 486,21.6177778 C486.646159,20.9028085 487.573868,20.5061611 488.538462,20.5324444 L506.967033,20.5324444 C512.703911,20.1082382 518.411253,21.6769418 523.120879,24.9724444 C526.638342,27.7872314 528.627874,32.0856364 528.494505,36.5822222 C528.518181,39.660773 527.585313,42.6710458 525.824176,45.1991111 C523.970504,47.9032353 521.250144,49.8980761 518.10989,50.856 C521.762186,51.7114028 524.715002,54.3837682 525.923077,57.9271111 C527.266676,61.4129576 527.970206,65.1116603 528,68.8462222 L528,72.4968889 C528.033578,73.4375847 527.661526,74.3475492 526.978022,74.9964444 C526.325834,75.6992582 525.398956,76.0835414 524.43956,76.0488889 C523.462481,76.0917616 522.510096,75.735464 521.802198,75.0622222 C521.134295,74.3783119 520.776804,73.4510362 520.813187,72.4968889 L520.813187,70.1288889 C520.836853,67.6761044 520.593671,65.2279989 520.087912,62.8275556 C519.621654,60.535898 518.4726,58.4381134 516.791209,56.8088889 C514.53088,54.8949745 511.604217,53.9493144 508.648352,54.1777778 L492.164835,54.1777778 L492.164835,72.4968889 C492.189932,73.442668 491.805546,74.3534207 491.10989,74.9964444 C490.426872,75.6740397 489.501695,76.0527 488.538462,76.0488889 C487.579066,76.0835414 486.652188,75.6992582 486,74.9964444 Z M506.505495,47.3697778 C510.283573,47.5614145 514.03413,46.6345796 517.285714,44.7057778 C519.836208,43.0363208 521.314867,40.1485205 521.175824,37.1084444 C521.37105,34.2961584 520.131369,31.5753237 517.879121,29.8728889 C514.313832,27.8639278 510.221648,26.9809186 506.142857,27.3404444 L492.164835,27.3404444 L492.164835,47.3697778 L506.505495,47.3697778 Z" id="Shape" fill="#1E1E1C" fill-rule="nonzero"></path>
        <path d="M551.604396,72.7928889 C547.484382,70.4458249 544.130516,66.9628755 541.945055,62.7617778 C537.198309,53.5561094 537.198309,42.6305573 541.945055,33.4248889 C544.155973,29.2844604 547.507476,25.8610215 551.604396,23.5582222 C560.683351,18.6933906 571.602363,18.6933906 580.681319,23.5582222 C584.822248,25.9145398 588.19779,29.4076492 590.406593,33.6222222 C595.242408,42.7829108 595.242408,53.7326448 590.406593,62.8933333 C588.224487,67.0944793 584.884618,70.5861829 580.78022,72.9573333 C571.701264,77.8221649 560.782252,77.8221649 551.703297,72.9573333 L551.604396,72.7928889 Z M577.153846,66.8728889 C580.21684,65.025711 582.687341,62.3442679 584.274725,59.144 C585.937563,55.6995931 586.772844,51.9159585 586.714286,48.0933333 C586.772844,44.2707081 585.937563,40.4870736 584.274725,37.0426667 C582.705199,33.8511532 580.258416,31.1706344 577.21978,29.3137778 C570.364696,25.5015443 562.019919,25.5015443 555.164835,29.3137778 C552.114676,31.1183415 549.64426,33.7540521 548.043956,36.9111111 C546.354483,40.3474463 545.507063,44.1348887 545.571429,47.9617778 C545.507063,51.7886668 546.354483,55.5761092 548.043956,59.0124444 C549.605828,62.2091453 552.054373,64.8915949 555.098901,66.7413333 C561.953985,70.5535668 570.298762,70.5535668 577.153846,66.7413333 L577.153846,66.8728889 Z" id="Shape" fill="#1E1E1C" fill-rule="nonzero"></path>
        <path d="M201.734375,121 L201.734375,102.38916 L205.391602,102.38916 L205.391602,121 L201.734375,121 Z M203.562988,99.125 C202.195801,99.125 201.1875,98.1508789 201.1875,96.8862305 C201.1875,95.6044922 202.195801,94.6303711 203.562988,94.6303711 C204.930176,94.6303711 205.938477,95.6044922 205.938477,96.8862305 C205.938477,98.1508789 204.930176,99.125 203.562988,99.125 Z M221.729492,95.7412109 C228.838867,95.7412109 233.213867,100.714355 233.213867,108.661133 C233.213867,116.59082 228.873047,121.598145 221.729492,121.598145 C214.568848,121.598145 210.210938,116.60791 210.210938,108.661133 C210.210938,100.697266 214.654297,95.7412109 221.729492,95.7412109 Z M221.729492,99.3129883 C217.081055,99.3129883 214.124512,102.936035 214.124512,108.661133 C214.124512,114.352051 216.995605,118.026367 221.729492,118.026367 C226.412109,118.026367 229.300293,114.352051 229.300293,108.661133 C229.300293,102.936035 226.412109,99.3129883 221.729492,99.3129883 Z M237.22998,114.369141 L241.023926,114.369141 C241.348633,116.710449 243.638672,118.197266 246.937012,118.197266 C250.013184,118.197266 252.269043,116.60791 252.269043,114.42041 C252.269043,112.540527 250.833496,111.412598 247.569336,110.643555 L244.390625,109.874512 C239.930176,108.832031 237.896484,106.678711 237.896484,103.055664 C237.896484,98.6635742 241.485352,95.7412109 246.868652,95.7412109 C251.875977,95.7412109 255.533203,98.6635742 255.755371,102.816406 L252.029785,102.816406 C251.670898,100.543457 249.688477,99.125 246.817383,99.125 C243.79248,99.125 241.775879,100.577637 241.775879,102.799316 C241.775879,104.55957 243.074707,105.567871 246.287598,106.319824 L249.004883,106.986328 C254.063477,108.165527 256.148438,110.216309 256.148438,113.924805 C256.148438,118.641602 252.491211,121.598145 246.646484,121.598145 C241.177734,121.598145 237.503418,118.77832 237.22998,114.369141 Z M280.826172,121 L276.998047,121 L276.998047,99.8256836 L269.239258,99.8256836 L269.239258,96.3393555 L288.567871,96.3393555 L288.567871,99.8256836 L280.826172,99.8256836 L280.826172,121 Z M300.68457,121.358887 C295.23291,121.358887 291.900391,117.71875 291.900391,111.686035 C291.900391,105.6875 295.25,102.030273 300.68457,102.030273 C306.102051,102.030273 309.45166,105.6875 309.45166,111.686035 C309.45166,117.71875 306.119141,121.358887 300.68457,121.358887 Z M300.68457,118.094727 C303.863281,118.094727 305.674805,115.736328 305.674805,111.686035 C305.674805,107.652832 303.863281,105.294434 300.68457,105.294434 C297.48877,105.294434 295.694336,107.652832 295.694336,111.686035 C295.694336,115.753418 297.48877,118.094727 300.68457,118.094727 Z M321.722168,121.358887 C316.270508,121.358887 312.937988,117.71875 312.937988,111.686035 C312.937988,105.6875 316.287598,102.030273 321.722168,102.030273 C327.139648,102.030273 330.489258,105.6875 330.489258,111.686035 C330.489258,117.71875 327.156738,121.358887 321.722168,121.358887 Z M321.722168,118.094727 C324.900879,118.094727 326.712402,115.736328 326.712402,111.686035 C326.712402,107.652832 324.900879,105.294434 321.722168,105.294434 C318.526367,105.294434 316.731934,107.652832 316.731934,111.686035 C316.731934,115.753418 318.526367,118.094727 321.722168,118.094727 Z M335.069336,121 L335.069336,95.1259766 L338.743652,95.1259766 L338.743652,121 L335.069336,121 Z M354.107422,121.307617 C351.509766,121.307617 349.339355,120.111328 348.228516,118.060547 L347.955078,118.060547 L347.955078,121 L344.41748,121 L344.41748,95.1259766 L348.091797,95.1259766 L348.091797,105.345703 L348.382324,105.345703 C349.373535,103.312012 351.561035,102.081543 354.107422,102.081543 C358.824219,102.081543 361.797852,105.772949 361.797852,111.686035 C361.797852,117.582031 358.807129,121.307617 354.107422,121.307617 Z M353.047852,105.379883 C349.97168,105.379883 348.040527,107.806641 348.023438,111.703125 C348.040527,115.599609 349.95459,118.009277 353.047852,118.009277 C356.158203,118.009277 358.020996,115.633789 358.020996,111.686035 C358.020996,107.772461 356.158203,105.379883 353.047852,105.379883 Z M374.068359,121.358887 C368.616699,121.358887 365.28418,117.71875 365.28418,111.686035 C365.28418,105.6875 368.633789,102.030273 374.068359,102.030273 C379.48584,102.030273 382.835449,105.6875 382.835449,111.686035 C382.835449,117.71875 379.50293,121.358887 374.068359,121.358887 Z M374.068359,118.094727 C377.24707,118.094727 379.058594,115.736328 379.058594,111.686035 C379.058594,107.652832 377.24707,105.294434 374.068359,105.294434 C370.872559,105.294434 369.078125,107.652832 369.078125,111.686035 C369.078125,115.753418 370.872559,118.094727 374.068359,118.094727 Z M394.200195,114.40332 L393.926758,114.40332 L389.859375,121 L385.826172,121 L391.995605,111.737305 L385.774902,102.38916 L390.064453,102.38916 L394.063477,108.95166 L394.354004,108.95166 L398.318848,102.38916 L402.40332,102.38916 L396.268066,111.583496 L402.47168,121 L398.250488,121 L394.200195,114.40332 Z" id="iOS-Toolbox" fill="#1E1E1C"></path>
    </g>
</svg>